<?xml version="1.0" encoding="utf-8"?>
<!-- Generator: Adobe Illustrator 19.1.1, SVG Export Plug-In . SVG Version: 6.00 Build 0)  -->
<svg version="1.1" id="Layer_1" xmlns="http://www.w3.org/2000/svg" xmlns:xlink="http://www.w3.org/1999/xlink" x="0px" y="0px"
	 viewBox="0 0 595.3 841.9" style="enable-background:new 0 0 595.3 841.9;" xml:space="preserve">
<style type="text/css">
	.st0{fill:none;stroke:#FFFFFF;stroke-width:4;stroke-miterlimit:10;}
	.st1{fill:none;stroke:#FFFFFF;stroke-width:8;stroke-miterlimit:10;}
	.st2{fill:#FFFFFF;stroke:#FFFFFF;stroke-miterlimit:10;}
</style>
<polyline class="st0" points="39.6,626.9 75.3,626.9 75.3,445.4 95.3,445.4 95.3,626.9 112.4,626.9 112.4,355.4 179.6,355.4 
	179.6,626.9 198.1,626.9 198.1,572.6 246.7,572.6 246.7,626.9 261,626.9 261,314 283.6,314 283.6,626.9 301,626.9 301,495.4 
	382.4,495.4 382.4,626.9 425.3,626.9 425.3,332.6 439.6,332.6 439.6,626.9 475.3,626.9 475.3,435.4 493.9,435.4 493.9,626.9 
	505.3,626.9 505.3,479.7 523.9,479.7 523.9,626.9 551,626.9 "/>
<path class="st0" d="M39.6,389.7c0,0,244.6-257.1,511.4,0"/>
<polyline class="st1" points="271.8,231.9 357.5,172.9 233,171.9 320.1,232.7 "/>
<polygon class="st0" points="294.5,112.6 257.8,165.1 332.8,165.1 "/>
<path class="st2" d="M263.5,224.1c-8.6,0-15.5,7-15.5,15.5s7,15.5,15.5,15.5s15.5-7,15.5-15.5S272.1,224.1,263.5,224.1z
	 M263.5,248.8c-5.1,0-9.2-4.1-9.2-9.2s4.1-9.2,9.2-9.2s9.2,4.1,9.2,9.2S268.6,248.8,263.5,248.8z"/>
<path class="st2" d="M326.3,224.1c-8.6,0-15.5,7-15.5,15.5s7,15.5,15.5,15.5s15.5-7,15.5-15.5S334.8,224.1,326.3,224.1z
	 M326.3,248.8c-5.1,0-9.2-4.1-9.2-9.2s4.1-9.2,9.2-9.2s9.2,4.1,9.2,9.2S331.4,248.8,326.3,248.8z"/>
</svg>
